HIERARCHY
ROOT hip
{
	OFFSET 0.000000 0.000000 0.000000
	CHANNELS 6 Xposition Yposition Zposition Xrotation Zrotation Yrotation 
	JOINT abdomen
	{
		OFFSET 0.000000 3.422050 0.000000
		CHANNELS 3 Xrotation Zrotation Yrotation 
		JOINT chest
		{
			OFFSET 0.000000 8.486693 -0.684411
			CHANNELS 3 Xrotation Zrotation Yrotation 
			JOINT neck
			{
				OFFSET 0.000000 10.266162 -0.273764
				CHANNELS 3 Xrotation Zrotation Yrotation 
				JOINT head
				{
					OFFSET 0.000000 3.148285 0.000000
					CHANNELS 3 Xrotation Zrotation Yrotation 
					End Site
					{
						OFFSET 0.000000 3.148289 0.000000
					}
				}
			}
			JOINT lCollar
			{
				OFFSET 3.422053 6.707223 -0.821293
				CHANNELS 3 Yrotation Zrotation Xrotation 
				JOINT lShldr
				{
					OFFSET 3.285171 0.000000 0.000000
					CHANNELS 3 Zrotation Yrotation Xrotation 
					JOINT lForeArm
					{
						OFFSET 10.129278 0.000000 0.000000
						CHANNELS 3 Yrotation Zrotation Xrotation 
						JOINT lHand
						{
							OFFSET 8.486692 0.000000 0.000000
							CHANNELS 3 Zrotation Yrotation Xrotation 
							End Site
							{
								OFFSET 4.106464 0.000000 0.000000
							}
						}
					}
				}
			}
			JOINT rCollar
			{
				OFFSET -3.558935 6.707223 -0.821293
				CHANNELS 3 Yrotation Zrotation Xrotation 
				JOINT rShldr
				{
					OFFSET -3.148289 0.000000 0.000000
					CHANNELS 3 Zrotation Yrotation Xrotation 
					JOINT rForeArm
					{
						OFFSET -10.266159 0.000000 0.000000
						CHANNELS 3 Yrotation Zrotation Xrotation 
						JOINT rHand
						{
							OFFSET -8.349810 0.000000 0.000000
							CHANNELS 3 Zrotation Yrotation Xrotation 
							End Site
							{
								OFFSET -4.106464 0.000000 0.000000
							}
						}
					}
				}
			}
		}
	}
	JOINT lThigh
	{
		OFFSET 5.338403 -1.642589 1.368821
		CHANNELS 3 Xrotation Zrotation Yrotation 
		JOINT lShin
		{
			OFFSET -2.053232 -20.121670 0.000000
			CHANNELS 3 Xrotation Zrotation Yrotation 
			JOINT lFoot
			{
				OFFSET 0.000000 -19.300380 -1.231939
				CHANNELS 3 Xrotation Yrotation Zrotation 
				End Site
				{
					OFFSET 0.000000 -2.463878 4.653993
				}
			}
		}
	}
	JOINT rThigh
	{
		OFFSET -5.338403 -1.642589 1.368821
		CHANNELS 3 Xrotation Zrotation Yrotation 
		JOINT rShin
		{
			OFFSET 2.053232 -20.121670 0.000000
			CHANNELS 3 Xrotation Zrotation Yrotation 
			JOINT rFoot
			{
				OFFSET 0.000000 -19.300380 -1.231939
				CHANNELS 3 Xrotation Yrotation Zrotation 
				End Site
				{
					OFFSET 0.000000 -2.463878 4.653993
				}
			}
		}
	}
}
MOTION
Frames: 11
Frame Time: 0.066646
0.000000 43.528500 0.000000 0.000000 0.000000 0.000000 0.000000 0.000000 0.000000 0.000000 0.000000 0.000000 0.000000 0.000000 0.000000 0.000000 0.000000 0.000000 0.000000 0.000000 0.000000 0.000000 0.000000 0.000000 0.000000 0.000000 0.000000 0.000000 0.000000 0.000000 0.000000 0.000000 0.000000 0.000000 0.000000 0.000000 0.000000 0.000000 0.000000 0.000000 0.000000 0.000000 0.000000 0.000000 0.000000 0.000000 0.000000 0.000000 0.000000 0.000000 0.000000 0.000000 0.000000 0.000000 0.000000 0.000000 0.000000 0.000000 0.000000 0.000000 
-16.199158 6.879879 17.526810 -85.026840 3.432516 3.016918 9.871089 -0.655706 2.490223 37.300205 -3.188800 -6.755569 6.303152 -0.052972 0.166948 4.142616 18.507139 34.997532 41.047085 9.956617 -10.360599 -43.004967 -11.696144 11.774554 -23.477272 -53.444744 5.457390 7.312400 2.040015 49.997852 3.045381 10.850728 -6.549228 61.210590 15.310423 -15.496655 66.847626 39.693333 2.638866 23.169899 -6.887835 -0.178084 -21.675274 9.121792 13.983836 52.426029 13.697759 -9.014893 12.687658 -2.442464 -0.113799 -6.001607 -19.000648 -14.001073 0.857772 -8.515841 10.181114 -1.075062 -18.340584 -5.611619 
-16.199158 6.879879 17.526810 -85.026840 3.432516 3.016918 9.871089 -0.655706 2.490223 37.300213 -3.188801 -6.755569 6.303152 -0.052972 0.166948 4.142616 18.507141 34.997532 41.047092 9.956617 -10.360600 -43.004967 -11.696145 11.774554 -23.477272 -53.444744 5.457390 7.312400 2.040015 49.997852 3.045381 10.850730 -6.549229 61.209076 14.802313 -15.488921 66.834549 39.113686 2.631334 22.427355 -6.864192 -0.167544 -21.675274 9.121792 13.983836 52.426037 13.697760 -9.014894 12.687658 -2.442464 -0.113799 -6.862691 -19.000658 -14.001095 2.779291 -8.480563 10.120346 -1.075062 -18.340584 -5.611619 
-16.199158 6.879879 17.526810 -85.026840 3.432516 3.016918 9.871088 -0.655706 2.490223 37.300205 -3.188799 -6.755568 6.303152 -0.052972 0.166948 4.142616 18.507139 34.997532 41.047085 9.956617 -10.360599 -43.004963 -11.696143 11.774553 -23.477272 -53.444740 5.457386 7.312399 2.040015 49.997852 3.045381 10.850726 -6.549228 61.207493 14.293618 -15.481180 66.821457 38.533176 2.623687 21.683811 -6.840382 -0.157299 -21.675272 9.121791 13.983835 52.426029 13.697758 -9.014893 12.687658 -2.442464 -0.113799 -7.726254 -19.000664 -14.001117 4.735071 -8.442601 10.059760 -1.075062 -18.340584 -5.611619 
-16.199158 6.879879 17.526810 -85.026840 3.432516 3.016918 9.871089 -0.655706 2.490223 37.300205 -3.188800 -6.755569 6.303152 -0.052972 0.166948 4.142615 18.507137 34.997532 41.047085 9.956617 -10.360599 -43.004967 -11.696144 11.774554 -23.477272 -53.444744 5.457390 7.312400 2.040015 49.997852 3.045381 10.850728 -6.549228 61.205860 13.784369 -15.473438 66.808342 37.951836 2.615922 20.939327 -6.816410 -0.147353 -21.675274 9.121792 13.983836 52.426029 13.697759 -9.014893 12.687658 -2.442464 -0.113799 -8.592206 -19.000671 -14.001140 6.724869 -8.401901 9.999500 -1.075062 -18.340584 -5.611619 
-16.199158 6.879879 17.526810 -85.026855 3.432517 3.016918 9.871089 -0.655706 2.490224 37.300205 -3.188800 -6.755569 6.303153 -0.052972 0.166948 4.142616 18.507139 34.997532 41.047085 9.956617 -10.360599 -43.004967 -11.696144 11.774554 -23.477272 -53.444748 5.457392 7.312400 2.040016 49.997856 3.045381 10.850729 -6.549229 61.204136 13.274578 -15.465690 66.795212 37.369675 2.608035 20.193966 -6.792283 -0.137712 -21.675274 9.121792 13.983836 52.426029 13.697759 -9.014894 12.687658 -2.442464 -0.113799 -9.460466 -19.000683 -14.001162 8.748342 -8.358407 9.939717 -1.075062 -18.340584 -5.611619 
-16.199158 6.879879 17.526810 -85.026833 3.432516 3.016918 9.871088 -0.655706 2.490223 37.300205 -3.188800 -6.755568 6.303152 -0.052972 0.166948 4.142616 18.507139 34.997532 41.047085 9.956617 -10.360599 -43.004959 -11.696144 11.774553 -23.477270 -53.444740 5.457391 7.312399 2.040015 49.997849 3.045381 10.850727 -6.549227 61.202347 12.764259 -15.457929 66.782059 36.786732 2.600038 19.447788 -6.768004 -0.128376 -21.675270 9.121791 13.983836 52.426029 13.697759 -9.014893 12.687658 -2.442464 -0.113799 -10.330937 -19.000696 -14.001186 10.805058 -8.312080 9.880585 -1.075062 -18.340582 -5.611619 
-16.199158 6.879879 17.526810 -85.026840 3.432516 3.016918 9.871089 -0.655706 2.490223 37.300205 -3.188800 -6.755569 6.303152 -0.052972 0.166948 4.142616 18.507139 34.997532 41.047085 9.956617 -10.360599 -43.004967 -11.696144 11.774554 -23.477272 -53.444744 5.457390 7.312400 2.040015 49.997852 3.045381 10.850728 -6.549228 61.200489 12.253441 -15.450160 66.768906 36.203049 2.591919 18.700861 -6.743582 -0.119352 -21.675274 9.121792 13.983837 52.426029 13.697759 -9.014893 12.687658 -2.442464 -0.113799 -11.203529 -19.000708 -14.001208 12.894485 -8.262891 9.822267 -1.075062 -18.340584 -5.611619 
-16.199158 6.879879 17.526810 -85.026840 3.432516 3.016918 9.871089 -0.655706 2.490223 37.300205 -3.188800 -6.755569 6.303153 -0.052972 0.166948 4.142615 18.507137 34.997532 41.047085 9.956617 -10.360599 -43.004967 -11.696143 11.774554 -23.477274 -53.444744 5.457389 7.312400 2.040015 49.997852 3.045382 10.850729 -6.549229 61.198570 11.742141 -15.442384 66.755737 35.618641 2.583685 17.953236 -6.719020 -0.110640 -21.675274 9.121792 13.983837 52.426033 13.697760 -9.014894 12.687659 -2.442464 -0.113798 -12.078143 -19.000711 -14.001229 15.015993 -8.210820 9.764949 -1.075062 -18.340584 -5.611619 
-16.199158 6.879879 17.526810 -85.026840 3.432516 3.016918 9.871089 -0.655706 2.490223 37.300201 -3.188800 -6.755568 6.303151 -0.052972 0.166948 4.142616 18.507139 34.997532 41.047085 9.956617 -10.360599 -43.004959 -11.696144 11.774553 -23.477272 -53.444744 5.457390 7.312400 2.040015 49.997852 3.045381 10.850728 -6.549228 61.196575 11.230374 -15.434595 66.742531 35.033539 2.575338 17.204985 -6.694326 -0.102246 -21.675274 9.121792 13.983836 52.426025 13.697757 -9.014894 12.687658 -2.442464 -0.113798 -12.954693 -19.000727 -14.001254 17.168827 -8.155859 9.708812 -1.075062 -18.340582 -5.611619 
-16.199158 6.879879 17.526810 -85.026840 3.432516 3.016918 9.871089 -0.655706 2.490223 37.300205 -3.188800 -6.755569 6.303152 -0.052972 0.166948 4.142615 18.507139 34.997532 41.047085 9.956617 -10.360599 -43.004967 -11.696144 11.774554 -23.477272 -53.444744 5.457390 7.312400 2.040015 49.997852 3.045381 10.850728 -6.549229 61.194508 10.718166 -15.426795 66.729309 34.447777 2.566877 16.456160 -6.669504 -0.094170 -21.675276 9.121792 13.983836 52.426029 13.697759 -9.014893 12.687658 -2.442464 -0.113799 -13.833074 -19.000736 -14.001273 19.352140 -8.098021 9.654054 -1.075062 -18.340584 -5.611619 
